<?xml version="1.0" encoding="UTF-8"?><svg id="uuid-544c8fe2-5512-4627-a39e-797bebffe84c" xmlns="http://www.w3.org/2000/svg" viewBox="0 0 361.28 553.65"><defs><style>.uuid-816e94ac-2aa0-4c58-bcfa-bac7b6539ac7{fill:#c49a6c;}</style></defs><g id="uuid-2623dbb1-e6dc-4f37-9989-52870c0fbc3b"><g><path class="uuid-816e94ac-2aa0-4c58-bcfa-bac7b6539ac7" d="M165.04,415.8c-2.08,2.08-3.07,4.84-2.99,8.28,0,.84,.44,3.7,1.31,8.59,.52,3,.29,5-.71,6-1.9,1.9-4.39,1.32-7.46-1.75-.61-.61-1.34-1.6-2.2-2.96-.86-1.36-1.5-2.26-1.94-2.7-.4-.4-.79-.42-1.15-.05-.37,.37-.81,1.02-1.34,1.97-.58,1.03-1,1.71-1.26,2.04-.86,1.1-1.63,2-2.33,2.7-.07,.07-.25,.24-.55,.5-.24,.17-.42,.33-.52,.47-.58,.72,1.48,3.41,6.16,8.09-1.24,1.1-2.14,1.93-2.7,2.49-.7,.7-1.07,1.18-1.13,1.44,.07,.17,.17,.33,.31,.47,.21,.21,.56,.5,1.06,.88,.5,.38,.86,.68,1.09,.9-.02-.02,.23,.28,.73,.89,.45,.52,.83,.9,1.13,1.13,.42,.35,.72,.44,.89,.26,.3-.3,1.76-1.9,4.4-4.82,7.4,4.26,13.46,4.04,18.18-.68,2.22-2.22,3.21-5.03,2.98-8.44-.07-.87-.67-3.64-1.81-8.3-.7-2.93-.53-4.91,.5-5.94,1.82-1.82,3.7-1.75,5.66,.21,1,1,1.9,2.65,2.72,4.98,.82,2.32,1.24,3.49,1.26,3.51,.3,.3,.71,.31,1.23,.03,1.47-.84,2.56-1.49,3.27-1.96,1.48-.68,2.61-1.16,3.38-1.44,.44-.23,.72-.4,.84-.52,.59-.59,0-2.6-1.78-6.02-1.56-2.99-2.81-5.03-3.77-6.13-.12,.12,.3-.26,1.26-1.15,.71-.65,1.24-1.19,1.57-1.62,.47-.58,.6-.97,.39-1.18l-4.51-4.51c-.26-.26-.73-.13-1.39,.39-.47,.37-1.07,.94-1.78,1.73-.69,.77-1.09,1.21-1.19,1.33-2.79-1.88-5.84-2.78-9.13-2.69-3.48,.09-6.37,1.29-8.7,3.62Z"/><path class="uuid-816e94ac-2aa0-4c58-bcfa-bac7b6539ac7" d="M215.81,394.87c4.07,0,7.38-3.3,7.38-7.38s-3.3-7.38-7.38-7.38-7.38,3.3-7.38,7.38,3.3,7.38,7.38,7.38Z"/><path class="uuid-816e94ac-2aa0-4c58-bcfa-bac7b6539ac7" d="M330.74,350.5c10.63,8.99,12.44,71.25-8.44,45.98-6.9-43.89,25.59-104-23-133.98,28.6,43.59-26.91,131.44-30.74,39.04,4.66-27.1,16.13-53.22,15.86-81.04,2.94-61.95-69.28-61.5-80.45-112-10.02,59.77,55.29,73.93,50.59,126.01,1.46,24.45-30.39,72.3-44.09,28.98C253.7,113.01,58.52,112.25,142.06,0c-62.34,23.93-67.66,108.23-38.64,160.11,24.2,32.46,55.71,63.41,47.95,107.88-1.36,21.84-22.69,81.75-49.7,62.98-19.53-36.83,47.16-84.16-4.04-113.97,17.51,67.7-81.15,87.75-82.61,151.53-18.12,119.92,115.53,211.37,225.32,178.28,83.17-12.34,167.88-130.59,90.39-196.32Zm-92.4,72.43l-83.18,70.68-45.89-49.17,70.2-76.01,58.87-6.35v60.85Z"/><path class="uuid-816e94ac-2aa0-4c58-bcfa-bac7b6539ac7" d="M116.11,194.5c20.25,30.24,16.23,74.01,6.99,108,20.84-34.6,26.33-79.32-6.99-108Z"/><path class="uuid-816e94ac-2aa0-4c58-bcfa-bac7b6539ac7" d="M24.26,319.5c-23.43,25.15-32.91,74.55-14.79,107-12.67-36.54-3.58-74.2,14.79-107Z"/><path class="uuid-816e94ac-2aa0-4c58-bcfa-bac7b6539ac7" d="M287.81,295.5c-11.18-34.11,18.47-54.61,9.98-85,1.35,26.89-22.51,57.71-9.98,85Z"/><path class="uuid-816e94ac-2aa0-4c58-bcfa-bac7b6539ac7" d="M156.54,95c-17.63-19.96-19.34-46.2-21.96-69.5-7.86,22.87-1.91,57.34,21.96,69.5Z"/><path class="uuid-816e94ac-2aa0-4c58-bcfa-bac7b6539ac7" d="M80.17,161.5c8.32,12.47,17.51,24.09,17.47,40,9.61-15.09-1.73-34.27-17.47-40Z"/><path class="uuid-816e94ac-2aa0-4c58-bcfa-bac7b6539ac7" d="M198.47,108.5c-6.02-13.51-8.31-26.65-4.99-41-8.29,10.65-6.22,32.9,4.99,41Z"/></g></g></svg>