<?xml version="1.0" encoding="UTF-8"?><svg id="uuid-c24a14e3-dc53-4de0-97a1-79e655d3080e" xmlns="http://www.w3.org/2000/svg" viewBox="0 0 361.27 553.65"><defs><style>.uuid-8baf27d1-86b9-4465-ae30-1386dbe6252d{fill:#c49a6c;}</style></defs><g id="uuid-3343ea04-8754-4209-abcc-b8f9c6dd6a20"><g><path class="uuid-8baf27d1-86b9-4465-ae30-1386dbe6252d" d="M330.74,350.5c10.63,8.99,12.44,71.25-8.44,45.98-6.9-43.89,25.59-104-23-133.98,28.6,43.59-26.91,131.44-30.74,39.04,4.66-27.1,16.13-53.22,15.86-81.04,2.94-61.95-69.28-61.5-80.45-112-10.02,59.77,55.29,73.93,50.59,126.01,1.46,24.45-30.39,72.3-44.09,28.98C253.7,113.01,58.52,112.25,142.06,0c-62.34,23.93-67.66,108.23-38.64,160.11,24.2,32.46,55.71,63.41,47.95,107.88-1.36,21.84-22.69,81.75-49.7,62.98-19.53-36.83,47.16-84.16-4.04-113.97,17.51,67.7-81.15,87.75-82.61,151.53-18.12,119.92,115.53,211.37,225.32,178.28,83.17-12.34,167.87-130.59,90.39-196.32Zm-109.69,2.34c3.26,19.6-28.57,23.17-23.31,45.62-7.66-18.94,20.27-29.96,23.31-45.62Zm-39.34-23.46c5.69,25.35-25.63,38.5-17.59,67.13-9.99-23.31,16.51-45.39,17.59-67.13Zm-46.03,20.05c2.69,15.7,24.42,29.25,18.97,47.14,3.53-21.57-21.03-28.18-18.97-47.14Zm117.3,123.14c-6.88,2.61-14.06,3.65-21.35,3.67-32.83,.09-65.65,.1-98.48,.03-13.64-.03-24.68-8.74-27.9-22.21-3.17-13.24,.21-24.74,10.19-34.16,.59-.56,1.27-1.04,1.95-1.59-.18,4.28-.47,8.35-.5,12.42-.02,3.66,.71,7.22,2.39,10.52,2.2,4.33,5.77,6.79,10.59,7.69-.59-2.51-1.34-4.83-1.64-7.21-1.31-10.3-.04-20.35,4.1-29.83,1.15-2.63,3.85-4.75,6.19-6.66,3.73-3.06,10.87-5.25,14.38-4.89-.32,3.04-.77,6.07-.93,9.11-.33,6.38,.44,12.61,3.16,18.47,2.11,4.56,5.14,8.24,10.12,9.89,.57,.19,1.16,.3,1.75,.44-.65-3.03-1.47-5.91-1.87-8.86-1.29-9.52-.43-18.84,3.14-27.81,.4-1.01,1.24-2.01,2.14-2.61,5.24-3.5,11-5.38,17.36-5.16,.71,.02,1.42,.14,2.24,.23-.74,3.5-1.52,6.85-2.13,10.23-1.27,7.01-2.09,14.06-.5,21.13,1.19,5.3,4.02,9.38,9.26,11.6-2.36-13.27,1.84-25.19,7.05-36.9,.23-.52,.82-1.1,1.35-1.24,6.62-1.76,15.53-.62,21.32,2.67-1.29,3.52-2.64,7.03-3.88,10.58-1.76,5.08-3.03,10.27-3.46,15.65-.31,3.78,.03,7.48,1.58,10.99,1.08,2.46,2.78,4.39,5.17,5.86-.37-12.63,4.97-23.14,11.31-33.32,.71-1.14,1.43-1.24,2.6-.94,15.01,3.88,28.55,19.11,30.6,34.47,1.73,12.98-4.42,22.85-17.29,27.73Z"/><path class="uuid-8baf27d1-86b9-4465-ae30-1386dbe6252d" d="M116.11,194.5c20.25,30.24,16.23,74.01,6.99,108,20.84-34.6,26.33-79.32-6.99-108Z"/><path class="uuid-8baf27d1-86b9-4465-ae30-1386dbe6252d" d="M24.26,319.5c-23.43,25.15-32.9,74.55-14.79,107-12.67-36.54-3.58-74.2,14.79-107Z"/><path class="uuid-8baf27d1-86b9-4465-ae30-1386dbe6252d" d="M287.81,295.5c-11.18-34.11,18.47-54.61,9.98-85,1.35,26.89-22.51,57.71-9.98,85Z"/><path class="uuid-8baf27d1-86b9-4465-ae30-1386dbe6252d" d="M156.54,95c-17.63-19.96-19.34-46.2-21.96-69.5-7.86,22.87-1.91,57.34,21.96,69.5Z"/><path class="uuid-8baf27d1-86b9-4465-ae30-1386dbe6252d" d="M80.17,161.5c8.32,12.47,17.51,24.09,17.47,40,9.61-15.09-1.73-34.27-17.47-40Z"/><path class="uuid-8baf27d1-86b9-4465-ae30-1386dbe6252d" d="M198.47,108.5c-6.02-13.51-8.31-26.65-4.99-41-8.29,10.65-6.22,32.9,4.99,41Z"/></g></g></svg>